<svg width="107" height="80" viewBox="0 0 107 80" fill="none" xmlns="http://www.w3.org/2000/svg">
<g clip-path="url(#clip0_255_14401)">
<path d="M72.3097 34.6337H11.0156V11.0977H72.3097V34.6337ZM12.3416 33.297H70.9837V12.4329H12.3416V33.297Z" fill="#222226"/>
<path d="M89.361 57.6412H5.50586V5.54785H89.361V57.6412ZM6.83183 56.3044H88.0399V6.88311H6.83183V56.3044Z" fill="#222226"/>
<path d="M106.667 79.9999H0V-0.00292969H106.667V79.9999ZM1.32106 78.6632H105.341V1.33381H1.32106V78.6632Z" fill="#222226"/>
<path fill-rule="evenodd" clip-rule="evenodd" d="M24.4963 23.154C24.4963 20.7879 23.0554 19.6685 20.9687 19.6685H19.6511V26.6394H20.9687C23.0559 26.6394 24.4963 25.519 24.4963 23.154ZM18.168 18.3135H20.9402C23.8657 18.3135 26.0074 19.9874 26.0074 23.154C26.0074 26.3206 23.8657 27.994 20.9402 27.994H18.168V18.3135Z" fill="#222226"/>
<path fill-rule="evenodd" clip-rule="evenodd" d="M35.939 24.5506C35.939 26.8875 34.3601 28.1885 32.19 28.1885C30.0198 28.1885 28.4434 26.8879 28.4434 24.5506V18.3125H29.9255V24.5071C29.9019 24.8147 29.944 25.1238 30.0489 25.4137C30.1539 25.7035 30.3192 25.9674 30.5338 26.1874C30.7483 26.4074 31.0072 26.5785 31.2929 26.6892C31.5785 26.7999 31.8844 26.8476 32.19 26.829C32.4957 26.8479 32.8019 26.8005 33.0879 26.69C33.374 26.5795 33.6332 26.4084 33.8481 26.1884C34.063 25.9684 34.2286 25.7044 34.3338 25.4144C34.439 25.1244 34.4813 24.815 34.4578 24.5071V18.3145H35.939V24.5506Z" fill="#222226"/>
<path fill-rule="evenodd" clip-rule="evenodd" d="M37.9365 18.3145H45.3492V19.6715H42.3824V27.9949H40.9013V19.6715H37.9355L37.9365 18.3145Z" fill="#222226"/>
<path fill-rule="evenodd" clip-rule="evenodd" d="M55.6272 25.6432C54.6264 27.2888 53.4993 28.1884 51.4274 28.1884C48.6944 28.1884 46.6637 26.1125 46.6637 23.1543C46.6388 22.5003 46.7455 21.8479 46.9775 21.2365C47.2094 20.6252 47.5618 20.0676 48.0134 19.5973C48.465 19.127 49.0064 18.7538 49.605 18.5002C50.2035 18.2466 50.8469 18.1179 51.4961 18.1218C52.3485 18.087 53.1922 18.3057 53.9222 18.7508C54.6521 19.1959 55.236 19.8477 55.6012 20.6249L54.4226 21.4819C53.735 20.1412 52.7872 19.4768 51.4706 19.4768C49.6584 19.4768 48.1748 21.0255 48.1748 23.1563C48.1748 25.258 49.5602 26.8338 51.4568 26.8338C52.7465 26.8338 53.7616 26.2115 54.4899 24.8292L55.6272 25.6432Z" fill="#222226"/>
<path fill-rule="evenodd" clip-rule="evenodd" d="M58.0918 18.3145H59.573V22.3796H64.0478V18.3145H65.5324V27.9949H64.0478V23.7347H59.573V27.9949H58.0918V18.3145Z" fill="#222226"/>
<path fill-rule="evenodd" clip-rule="evenodd" d="M19.113 45.6027C19.113 43.2372 17.6726 42.1173 15.5859 42.1173H14.2678V49.0881H15.5859C17.6731 49.0881 19.113 47.9687 19.113 45.6027ZM12.7852 40.7627H15.5574C18.4824 40.7627 20.6241 42.4366 20.6241 45.6027C20.6241 48.7688 18.4824 50.4427 15.5574 50.4427H12.7852V40.7627Z" fill="#222226"/>
<path fill-rule="evenodd" clip-rule="evenodd" d="M25.4629 50.4422H26.944V40.7617H25.4629V50.4422Z" fill="#222226"/>
<path fill-rule="evenodd" clip-rule="evenodd" d="M39.4294 48.9489C39.1374 49.4845 38.702 49.9266 38.1728 50.2248C37.6437 50.523 37.0421 50.6654 36.4366 50.6357C33.7316 50.6357 31.754 48.5201 31.754 45.6016C31.7353 44.9479 31.8467 44.2972 32.0818 43.6877C32.3168 43.0782 32.6706 42.5224 33.1224 42.0532C33.5741 41.5839 34.1146 41.2107 34.7118 40.9556C35.3091 40.7005 35.951 40.5687 36.5996 40.568C37.4327 40.5396 38.2571 40.7461 38.9801 41.1641C39.7031 41.5822 40.2961 42.1953 40.6925 42.9345L39.5654 43.7222C39.292 43.1612 38.8648 42.691 38.3343 42.3673C37.8039 42.0437 37.1925 41.8802 36.5726 41.8963C34.7742 41.8963 33.2651 43.3489 33.2651 45.6026C33.2651 47.8018 34.5689 49.2811 36.4626 49.2811C38.206 49.2811 39.0851 48.1607 39.2918 46.6546H36.0506V45.4224H40.7725V50.4421H39.7854L39.4294 48.9489Z" fill="#222226"/>
<path fill-rule="evenodd" clip-rule="evenodd" d="M45.918 50.4422H47.3991V40.7617H45.918V50.4422Z" fill="#222226"/>
<path fill-rule="evenodd" clip-rule="evenodd" d="M51.6929 40.7617H59.1041V42.1163H56.1383V50.4422H54.6572V42.1163H51.6914L51.6929 40.7617Z" fill="#222226"/>
<path fill-rule="evenodd" clip-rule="evenodd" d="M65.6763 43.3896L64.5084 46.4468H67.5012L66.3363 43.3896C66.1428 42.8916 66.0068 42.4633 66.0068 42.4633C66.0068 42.4633 65.8698 42.8916 65.6763 43.3896ZM65.2643 40.7627H66.7488L70.5907 50.4432H69.0266L67.9953 47.7469H64.0144L62.9831 50.4432H61.418L65.2643 40.7627Z" fill="#222226"/>
<path fill-rule="evenodd" clip-rule="evenodd" d="M74.834 40.7617H76.3161V49.1144H81.1348V50.4422H74.834V40.7617Z" fill="#222226"/>
<path fill-rule="evenodd" clip-rule="evenodd" d="M12.0591 66.3535L10.8913 69.4107H13.884L12.7162 66.3535C12.5247 65.8554 12.3867 65.4272 12.3867 65.4272C12.3867 65.4272 12.2501 65.8554 12.0591 66.3535ZM11.6461 63.7266H13.1287L16.973 73.4071H15.4069L14.3756 70.7108H10.3967L9.36542 73.4071H7.80078L11.6461 63.7266Z" fill="#222226"/>
<path fill-rule="evenodd" clip-rule="evenodd" d="M28.3176 71.9128C28.0257 72.4485 27.5904 72.8908 27.0612 73.189C26.532 73.4873 25.9303 73.6295 25.3248 73.5996C22.6203 73.5996 20.6427 71.484 20.6427 68.566C20.6239 67.9123 20.7353 67.2615 20.9703 66.652C21.2052 66.0425 21.559 65.4867 22.0107 65.0174C22.4624 64.5481 23.0028 64.1748 23.6001 63.9197C24.1973 63.6645 24.8392 63.5327 25.4878 63.5319C26.3208 63.5034 27.1451 63.7096 27.8682 64.1275C28.5912 64.5454 29.1842 65.1584 29.5807 65.8974L28.4541 66.6851C28.1807 66.1241 27.7535 65.6539 27.223 65.3302C26.6926 65.0066 26.0811 64.8431 25.4613 64.8592C23.6629 64.8592 22.1538 66.3118 22.1538 68.566C22.1538 70.7647 23.4576 72.2435 25.3518 72.2435C27.0952 72.2435 27.9743 71.1231 28.181 69.6195H24.9398V68.3863H29.6617V73.4065H28.6751L28.3176 71.9128Z" fill="#222226"/>
<path fill-rule="evenodd" clip-rule="evenodd" d="M35.1191 63.7266H41.4332V65.0544H36.6003V67.7368H41.0492V69.0646H36.6013V72.0792H41.4749V73.4071H35.1201L35.1191 63.7266Z" fill="#222226"/>
<path fill-rule="evenodd" clip-rule="evenodd" d="M46.6777 63.7266H48.1869L52.4992 70.4727C52.6503 70.7091 52.7882 70.9539 52.9122 71.2059V63.7266H54.3364V73.4075H52.8273L48.5164 66.6605C48.3657 66.4245 48.2284 66.18 48.1054 65.9282V73.4075H46.6777V63.7266Z" fill="#222226"/>
<path fill-rule="evenodd" clip-rule="evenodd" d="M68.4398 71.0558C67.4389 72.7014 66.3119 73.6005 64.2399 73.6005C61.507 73.6005 59.4763 71.5251 59.4763 68.567C59.4511 67.9128 59.5577 67.2604 59.7895 66.6489C60.0213 66.0375 60.3736 65.4797 60.8251 65.0093C61.2766 64.5388 61.818 64.1655 62.4165 63.9117C63.0151 63.658 63.6584 63.5291 64.3077 63.5329C65.1599 63.4981 66.0034 63.7169 66.7332 64.1619C67.4629 64.6069 68.0467 65.2585 68.4118 66.0356L67.2361 66.8935C66.5486 65.5528 65.6008 64.8884 64.2841 64.8884C62.472 64.8884 60.9884 66.4371 60.9884 68.5679C60.9884 70.6696 62.3737 72.2455 64.2699 72.2455C65.56 72.2455 66.5751 71.6231 67.3034 70.2404L68.4398 71.0558Z" fill="#222226"/>
<path fill-rule="evenodd" clip-rule="evenodd" d="M73.4688 73.4066H74.9499V63.7266H73.4688V73.4066Z" fill="#222226"/>
<path fill-rule="evenodd" clip-rule="evenodd" d="M80.5449 63.7266H86.859V65.0544H82.0261V67.7368H86.4745V69.0646H82.0261V72.0792H86.8997V73.4071H80.5449V63.7266Z" fill="#222226"/>
<path fill-rule="evenodd" clip-rule="evenodd" d="M95.7222 67.7922C97.7927 68.1933 98.824 69.0646 98.824 70.6821C98.824 72.2451 97.4794 73.6031 95.3097 73.6031C93.0187 73.6031 91.6869 72.2753 91.3711 70.5469L92.675 69.8696C92.9475 71.4594 93.8403 72.3035 95.2969 72.3035C96.5738 72.3035 97.3414 71.598 97.3414 70.741C97.3414 69.7305 96.5468 69.2874 94.8987 68.9705C93.1145 68.624 91.8106 67.7531 91.8106 66.1213C91.8106 64.5865 93.169 63.535 95.1039 63.535C95.8765 63.4873 96.6431 63.6972 97.2856 64.1322C97.9282 64.5672 98.4109 65.2032 98.6595 65.9421L97.4809 66.6352C97.3473 66.1047 97.0371 65.6366 96.6021 65.3091C96.167 64.9817 95.6336 64.8149 95.0912 64.8365C94.0761 64.8365 93.2112 65.2668 93.2112 66.0961C93.2112 66.9674 94.0353 67.465 95.7237 67.7962" fill="#222226"/>
<path fill-rule="evenodd" clip-rule="evenodd" d="M24.4963 23.154C24.4963 20.7879 23.0554 19.6685 20.9687 19.6685H19.6511V26.6394H20.9687C23.0559 26.6394 24.4963 25.519 24.4963 23.154ZM18.168 18.3135H20.9402C23.8657 18.3135 26.0074 19.9874 26.0074 23.154C26.0074 26.3206 23.8657 27.994 20.9402 27.994H18.168V18.3135Z" fill="#222226"/>
<path fill-rule="evenodd" clip-rule="evenodd" d="M35.939 24.5506C35.939 26.8875 34.3601 28.1885 32.19 28.1885C30.0198 28.1885 28.4434 26.8879 28.4434 24.5506V18.3125H29.9255V24.5071C29.9019 24.8147 29.944 25.1238 30.0489 25.4137C30.1539 25.7035 30.3192 25.9674 30.5338 26.1874C30.7483 26.4074 31.0072 26.5785 31.2929 26.6892C31.5785 26.7999 31.8844 26.8476 32.19 26.829C32.4957 26.8479 32.8019 26.8005 33.0879 26.69C33.374 26.5795 33.6332 26.4084 33.8481 26.1884C34.063 25.9684 34.2287 25.7044 34.3338 25.4144C34.439 25.1244 34.4813 24.815 34.4578 24.5071V18.3145H35.939V24.5506Z" fill="#222226"/>
<path fill-rule="evenodd" clip-rule="evenodd" d="M37.9365 18.3135H45.3492V19.6705H42.3824V27.994H40.9013V19.6705H37.9355L37.9365 18.3135Z" fill="#222226"/>
<path fill-rule="evenodd" clip-rule="evenodd" d="M55.6272 25.6432C54.6264 27.2888 53.4993 28.1884 51.4274 28.1884C48.6944 28.1884 46.6637 26.1125 46.6637 23.1543C46.6388 22.5003 46.7455 21.8479 46.9775 21.2365C47.2094 20.6252 47.5618 20.0676 48.0134 19.5973C48.465 19.127 49.0064 18.7538 49.605 18.5002C50.2035 18.2466 50.8469 18.1179 51.4961 18.1218C52.3485 18.087 53.1922 18.3057 53.9222 18.7508C54.6521 19.1959 55.236 19.8477 55.6012 20.6249L54.4226 21.4819C53.735 20.1412 52.7872 19.4768 51.4706 19.4768C49.6584 19.4768 48.1748 21.0255 48.1748 23.1563C48.1748 25.258 49.5602 26.8338 51.4568 26.8338C52.7465 26.8338 53.7616 26.2115 54.4899 24.8292L55.6272 25.6432Z" fill="#222226"/>
<path fill-rule="evenodd" clip-rule="evenodd" d="M58.0918 18.3135H59.573V22.3787H64.0478V18.3135H65.5324V27.994H64.0478V23.7337H59.573V27.994H58.0918V18.3135Z" fill="#222226"/>
<path fill-rule="evenodd" clip-rule="evenodd" d="M19.113 45.6027C19.113 43.2372 17.6726 42.1173 15.5859 42.1173H14.2678V49.0881H15.5859C17.6731 49.0881 19.113 47.9687 19.113 45.6027ZM12.7852 40.7627H15.5574C18.4824 40.7627 20.6241 42.4366 20.6241 45.6027C20.6241 48.7688 18.4824 50.4427 15.5574 50.4427H12.7852V40.7627Z" fill="#222226"/>
<path fill-rule="evenodd" clip-rule="evenodd" d="M25.4629 50.4422H26.944V40.7617H25.4629V50.4422Z" fill="#222226"/>
<path fill-rule="evenodd" clip-rule="evenodd" d="M39.4294 48.9489C39.1374 49.4845 38.702 49.9266 38.1728 50.2248C37.6437 50.523 37.0421 50.6654 36.4366 50.6357C33.7316 50.6357 31.754 48.5201 31.754 45.6016C31.7353 44.9479 31.8467 44.2972 32.0818 43.6877C32.3168 43.0782 32.6706 42.5224 33.1224 42.0532C33.5741 41.5839 34.1146 41.2107 34.7118 40.9556C35.3091 40.7005 35.951 40.5687 36.5996 40.568C37.4327 40.5396 38.2571 40.7461 38.9801 41.1641C39.7031 41.5822 40.2961 42.1953 40.6925 42.9345L39.5654 43.7222C39.292 43.1612 38.8648 42.691 38.3343 42.3673C37.8039 42.0437 37.1925 41.8802 36.5726 41.8963C34.7742 41.8963 33.2651 43.3489 33.2651 45.6026C33.2651 47.8018 34.5689 49.2811 36.4626 49.2811C38.206 49.2811 39.0851 48.1607 39.2918 46.6546H36.0506V45.4224H40.7725V50.4421H39.7854L39.4294 48.9489Z" fill="#222226"/>
<path fill-rule="evenodd" clip-rule="evenodd" d="M45.918 50.4422H47.3991V40.7617H45.918V50.4422Z" fill="#222226"/>
<path fill-rule="evenodd" clip-rule="evenodd" d="M51.6929 40.7617H59.1041V42.1163H56.1383V50.4422H54.6572V42.1163H51.6914L51.6929 40.7617Z" fill="#222226"/>
<path fill-rule="evenodd" clip-rule="evenodd" d="M65.6763 43.3896L64.5084 46.4468H67.5012L66.3363 43.3896C66.1428 42.8916 66.0068 42.4633 66.0068 42.4633C66.0068 42.4633 65.8698 42.8916 65.6763 43.3896ZM65.2643 40.7627H66.7488L70.5907 50.4432H69.0266L67.9953 47.7469H64.0144L62.9831 50.4432H61.418L65.2643 40.7627Z" fill="#222226"/>
<path fill-rule="evenodd" clip-rule="evenodd" d="M74.834 40.7617H76.3161V49.1144H81.1348V50.4422H74.834V40.7617Z" fill="#222226"/>
<path fill-rule="evenodd" clip-rule="evenodd" d="M12.0591 66.3535L10.8913 69.4107H13.884L12.7162 66.3535C12.5247 65.8554 12.3867 65.4272 12.3867 65.4272C12.3867 65.4272 12.2501 65.8554 12.0591 66.3535ZM11.6461 63.7266H13.1287L16.973 73.4071H15.4069L14.3756 70.7108H10.3967L9.36542 73.4071H7.80078L11.6461 63.7266Z" fill="#222226"/>
<path fill-rule="evenodd" clip-rule="evenodd" d="M28.3176 71.9128C28.0257 72.4485 27.5904 72.8908 27.0612 73.189C26.532 73.4873 25.9303 73.6295 25.3248 73.5996C22.6203 73.5996 20.6427 71.484 20.6427 68.566C20.6239 67.9123 20.7353 67.2615 20.9703 66.652C21.2052 66.0425 21.559 65.4867 22.0107 65.0174C22.4624 64.5481 23.0028 64.1748 23.6001 63.9197C24.1973 63.6645 24.8392 63.5327 25.4878 63.5319C26.3208 63.5034 27.1451 63.7096 27.8682 64.1275C28.5912 64.5454 29.1842 65.1584 29.5807 65.8974L28.4541 66.6851C28.1807 66.1241 27.7535 65.6539 27.223 65.3302C26.6926 65.0066 26.0811 64.8431 25.4613 64.8592C23.6629 64.8592 22.1538 66.3118 22.1538 68.566C22.1538 70.7647 23.4576 72.2435 25.3518 72.2435C27.0952 72.2435 27.9743 71.1231 28.181 69.6195H24.9398V68.3863H29.6617V73.4065H28.6751L28.3176 71.9128Z" fill="#222226"/>
<path fill-rule="evenodd" clip-rule="evenodd" d="M35.1191 63.7266H41.4332V65.0544H36.6003V67.7368H41.0492V69.0646H36.6013V72.0792H41.4749V73.4071H35.1201L35.1191 63.7266Z" fill="#222226"/>
<path fill-rule="evenodd" clip-rule="evenodd" d="M46.6777 63.7266H48.1869L52.4992 70.4727C52.6503 70.7091 52.7882 70.9539 52.9122 71.2059V63.7266H54.3364V73.4075H52.8273L48.5164 66.6605C48.3657 66.4245 48.2284 66.18 48.1054 65.9282V73.4075H46.6777V63.7266Z" fill="#222226"/>
<path fill-rule="evenodd" clip-rule="evenodd" d="M68.4398 71.0558C67.4389 72.7014 66.3119 73.6005 64.2399 73.6005C61.507 73.6005 59.4763 71.5251 59.4763 68.567C59.4511 67.9128 59.5577 67.2604 59.7895 66.6489C60.0213 66.0375 60.3736 65.4797 60.8251 65.0093C61.2766 64.5388 61.818 64.1655 62.4165 63.9117C63.0151 63.658 63.6584 63.5291 64.3077 63.5329C65.1599 63.4981 66.0034 63.7169 66.7332 64.1619C67.4629 64.6069 68.0467 65.2585 68.4118 66.0356L67.2361 66.8935C66.5486 65.5528 65.6008 64.8884 64.2841 64.8884C62.472 64.8884 60.9884 66.4371 60.9884 68.5679C60.9884 70.6696 62.3737 72.2455 64.2699 72.2455C65.56 72.2455 66.5751 71.6231 67.3034 70.2404L68.4398 71.0558Z" fill="#222226"/>
<path fill-rule="evenodd" clip-rule="evenodd" d="M73.4688 73.4066H74.9499V63.7266H73.4688V73.4066Z" fill="#222226"/>
<path fill-rule="evenodd" clip-rule="evenodd" d="M80.5449 63.7266H86.859V65.0544H82.0261V67.7368H86.4745V69.0646H82.0261V72.0792H86.8997V73.4071H80.5449V63.7266Z" fill="#222226"/>
</g>
<defs>
<clipPath id="clip0_255_14401">
<rect width="106.667" height="80" fill="white"/>
</clipPath>
</defs>
</svg>
