<svg width="17" height="16" viewBox="0 0 17 16" fill="none" xmlns="http://www.w3.org/2000/svg">
<mask id="mask0_268_13184" style="mask-type:alpha" maskUnits="userSpaceOnUse" x="0" y="0" width="17" height="16">
<rect x="0.5" width="16" height="16" fill="#D9D9D9"/>
</mask>
<g mask="url(#mask0_268_13184)">
<path d="M8.50033 13.3332C7.01144 13.3332 5.75033 12.8165 4.71699 11.7832C3.68366 10.7498 3.16699 9.48873 3.16699 7.99984C3.16699 6.51095 3.68366 5.24984 4.71699 4.2165C5.75033 3.18317 7.01144 2.6665 8.50033 2.6665C9.26699 2.6665 10.0003 2.82484 10.7003 3.1415C11.4003 3.45817 12.0003 3.91095 12.5003 4.49984V2.6665H13.8337V7.33317H9.16699V5.99984H11.967C11.6114 5.37762 11.1253 4.88873 10.5087 4.53317C9.89199 4.17762 9.22255 3.99984 8.50033 3.99984C7.38921 3.99984 6.44477 4.38873 5.66699 5.1665C4.88921 5.94428 4.50033 6.88873 4.50033 7.99984C4.50033 9.11095 4.88921 10.0554 5.66699 10.8332C6.44477 11.6109 7.38921 11.9998 8.50033 11.9998C9.35588 11.9998 10.1281 11.7554 10.817 11.2665C11.5059 10.7776 11.9892 10.1332 12.267 9.33317H13.667C13.3559 10.5109 12.7225 11.4721 11.767 12.2165C10.8114 12.9609 9.72255 13.3332 8.50033 13.3332Z" fill="#364BF7"/>
</g>
</svg>
